# Alias OBJ Model File
# Exported from SketchUp, (c) 2000-2012 Trimble Navigation Limited
# File units = meters

mtllib signs-old.mtl

g Mesh1 Model

usemtl _auto_16
v -4.05444 2 8.65776
vt -0.0428235 6.56168
vn -0.605015 -1.2972e-007 0.796214
v -4.03366 2 8.67355
vt 0.0428235 6.56168
v -4.03366 8.4 8.67355
vt 0.0428235 27.5591
v -4.05444 8.4 8.65776
vt -0.0428235 27.5591
f 1/1/1 2/2/1 3/3/1 4/4/1 

vt 0.23197 -0.231922
vn -1.73606e-016 1 1.62921e-007
v -4.0222 2 8.73178
vt 0.475321 -0.1273
vt 0.2841 -0.163995
f 1/5/2 5/6/2 2/7/2

v -4.05845 2 8.71697
vt 0.426163 -0.245994
f 1/5/2 6/8/2 5/6/2

v -4.07043 2 8.63712
vt 0.164008 -0.28406
f 7/9/2 6/8/2 1/5/2

v -4.08054 2 8.61305
vt 0.0848812 -0.316854
f 8/10/2 6/8/2 7/9/2

v -4.08963 2 8.69328
vt 0.347952 -0.347917
f 8/10/2 9/11/2 6/8/2

v -4.08407 2 8.58719
vt -1.75254e-005 -0.328035
f 9/11/2 8/10/2 10/12/2

vt -0.0425356 6.56159
vn -0.990812 -2.20342e-008 0.135245
vt 0.0431116 6.56168
v -4.08054 8.4 8.61305
vt 0.0431116 27.5591
v -4.08407 8.4 8.58719
vt -0.0425356 27.559
v -4.08407 8.25 8.58719
vt -0.0425356 27.0669
v -4.08407 8.15 8.58719
vt -0.0425356 26.7388
f 10/13/3 8/14/3 11/15/3 12/16/3 13/17/3 14/18/3 

vn -0.921974 -6.30915e-008 0.387252
v -4.07043 8.4 8.63712
f 7/2/4 15/3/4 11/4/4 8/1/4 

vt 0.0428236 6.56168
vn -0.790512 -9.97804e-008 0.612447
vt 0.0428236 27.5591
f 1/19/5 4/20/5 15/4/5 7/1/5 

v -3.93448 8.4 8.49987
vt -0.284158 0.164076
vn -9.22804e-016 1 1.62921e-007
v -3.95865 8.4 8.49
vt -0.316924 0.0849312
v -3.98455 8.4 8.48671
vt -0.328125 6.89431e-006
v -4.01041 8.4 8.49024
vt -0.316944 -0.0848936
v -4.03448 8.4 8.50035
vt -0.284153 -0.164025
v -4.05512 8.4 8.51634
vt -0.232008 -0.231995
v -4.07091 8.4 8.53713
vt -0.164042 -0.284129
v -4.08079 8.4 8.56129
vt -0.084929 -0.316925
vt -3.15837e-007 -0.328095
vt 0.084907 -0.316921
vt 0.164041 -0.28413
vt 0.23201 -0.231993
vt 0.284143 -0.164064
v -4.00949 8.4 8.68343
vt 0.316939 -0.0849199
v -3.98359 8.4 8.68671
vt 0.32811 4.56335e-006
v -3.95773 8.4 8.68318
vt 0.316929 0.0849051
v -3.93366 8.4 8.67307
vt 0.284135 0.164036
v -3.91302 8.4 8.65708
vt 0.231993 0.232007
v -3.89723 8.4 8.6363
vt 0.164063 0.28414
v -3.88736 8.4 8.61213
vt 0.0849138 0.316904
v -3.88407 8.4 8.58623
vt -1.4708e-005 0.328106
v -3.8876 8.4 8.56037
vt -0.0849188 0.316932
v -3.89771 8.4 8.5363
vt -0.164056 0.284141
v -3.9137 8.4 8.51566
vt -0.232025 0.232005
f 16/21/6 17/22/6 18/23/6 19/24/6 20/25/6 21/26/6 22/27/6 23/28/6 12/29/6 11/30/6 15/31/6 4/32/6 3/33/6 24/34/6 25/35/6 26/36/6 27/37/6 28/38/6 29/39/6 30/40/6 31/41/6 32/42/6 33/43/6 34/44/6 

vn 0.378084 1.50828e-007 -0.925771
v -3.93448 2 8.49987
v -3.95865 2 8.49
f 17/20/7 16/4/7 35/1/7 36/19/7 

vn 0.605015 1.2972e-007 -0.796214
v -3.9137 2 8.51566
f 16/3/8 34/4/8 37/1/8 35/2/8 

vn 0.790512 9.97804e-008 -0.612447
v -3.89771 2 8.5363
f 37/19/9 34/20/9 33/4/9 38/1/9 

vn 0.92198 6.30893e-008 -0.387238
v -3.8876 2 8.56037
f 38/19/10 33/20/10 32/4/10 39/1/10 

vn 0.990812 2.20351e-008 -0.13525
vt -0.0428236 27.5591
v -3.88407 2 8.58623
vt -0.0428236 6.56168
f 39/2/11 32/3/11 31/45/11 40/46/11 

vn 0.992028 -2.05304e-008 0.126014
v -3.88736 2 8.61213
f 40/2/12 31/3/12 30/45/12 41/46/12 

vn 0.925785 -6.15925e-008 0.378051
v -3.89723 2 8.6363
f 41/19/13 30/20/13 29/4/13 42/1/13 

vn 0.7962 -9.85727e-008 0.605034
v -3.91302 2 8.65708
f 42/2/14 29/3/14 28/45/14 43/46/14 

v -3.93366 2 8.67307
vn 0.612428 -1.28793e-007 0.790526
f 44/1/15 43/19/15 28/20/15 27/4/15 

vt 0.284099 0.164074
v -3.90845 2 8.71626
vt 0.426191 0.24611
vt 0.231965 0.232034
f 44/47/2 45/48/2 43/49/2

v -3.94456 2 8.73141
vt 0.475326 0.127413
f 44/47/2 46/50/2 45/48/2

v -3.95773 2 8.68318
vt 0.316888 0.0849532
f 47/51/2 46/50/2 44/47/2

v -3.98336 2 8.73671
vt 0.492103 4.24965e-005
f 47/51/2 48/52/2 46/50/2

v -3.98359 2 8.68671
vt 0.328066 6.17221e-005
f 49/53/2 48/52/2 47/51/2

v -4.00949 2 8.68343
vt 0.316894 -0.0848555
f 50/54/2 48/52/2 49/53/2

f 50/54/2 5/6/2 48/52/2

f 2/7/2 5/6/2 50/54/2

vn -0.378379 -1.50808e-007 0.925651
f 2/46/16 50/2/16 24/3/16 3/45/16 

vn -0.125675 -1.61629e-007 0.992071
f 50/1/17 49/19/17 25/20/17 24/4/17 

vn 0.135288 -1.61423e-007 0.990806
f 25/4/18 49/1/18 47/2/18 26/3/18 

vn 0.387252 -1.50209e-007 0.921974
f 47/1/19 44/19/19 27/20/19 26/4/19 

v -4.0222 -4.08331e-008 8.73178
vt -0.0642353 -1.42827e-016
vn -0.125896 -1.61625e-007 0.992044
v -3.98336 -4.16361e-008 8.73671
vt 0.0642353 -1.61408e-016
vt 0.0642353 6.56168
vt -0.0642353 6.56168
f 51/55/20 52/56/20 48/57/20 5/58/20 

v -4.05969 3.90685e-009 8.45717
vt 0.426184 -0.246079
vn 1.14375e-017 -1 -1.62921e-007
v -4.02358 6.37673e-009 8.44201
vt 0.475359 -0.127371
v -3.98479 7.24005e-009 8.43671
vt 0.49214 -2.36541e-005
v -3.94594 6.43701e-009 8.44164
vt 0.475364 0.127361
v -3.90969 4.02399e-009 8.45645
vt 0.426206 0.246061
v -3.87851 1.6455e-010 8.48014
vt 0.348 0.347989
v -3.85453 -4.87802e-009 8.51109
vt 0.24608 0.426182
v -3.83937 -1.07611e-008 8.5472
vt 0.127371 0.475357
v -3.83407 -1.70824e-008 8.586
vt -9.52085e-006 0.492141
v -3.839 -2.34101e-008 8.62484
vt -0.127359 0.47536
v -3.85381 -2.9316e-008 8.66109
vt -0.24606 0.426206
v -3.8775 -3.4396e-008 8.69227
vt -0.347992 0.347996
v -3.90845 -3.83044e-008 8.71626
vt -0.426214 0.246079
v -3.94456 -4.07726e-008 8.73141
vt -0.475357 0.127371
vt -0.492141 -9.15452e-006
vt -0.475365 -0.127361
v -4.05845 -3.84202e-008 8.71697
vt -0.42621 -0.246061
v -4.08963 -3.45606e-008 8.69328
vt -0.348001 -0.347989
v -4.11362 -2.9518e-008 8.66233
vt -0.24608 -0.426215
v -4.12877 -2.36349e-008 8.62622
vt -0.127372 -0.475357
v -4.13407 -1.73152e-008 8.58743
vt -2.42879e-005 -0.492141
v -4.12914 -1.09859e-008 8.54858
vt 0.127358 -0.47536
v -4.11433 -5.08004e-009 8.51233
vt 0.246059 -0.426206
v -4.09064 2.25597e-017 8.48115
vt 0.347991 -0.347996
f 53/59/21 54/60/21 55/61/21 56/62/21 57/63/21 58/64/21 59/65/21 60/66/21 61/67/21 62/68/21 63/69/21 64/70/21 65/71/21 66/72/21 52/73/21 51/74/21 67/75/21 68/76/21 69/77/21 70/78/21 71/79/21 72/80/21 73/81/21 74/82/21 

v -4.05969 2 8.45717
vn -0.387098 1.50219e-007 -0.922039
v -4.02358 2 8.44201
vt -0.0642353 -2.04324e-015
vt 0.0642353 -2.11088e-015
f 75/57/22 76/58/22 54/83/22 53/84/22 

vt -0.426195 -0.246041
v -4.05512 2 8.51634
vt -0.231999 -0.231964
vt -0.475363 -0.127343
f 75/85/2 77/86/2 76/87/2

v -4.07091 2 8.53713
vt -0.164041 -0.284087
f 75/85/2 78/88/2 77/86/2

v -4.08079 2 8.56129
vt -0.084937 -0.316873
f 75/85/2 79/89/2 78/88/2

v -4.09064 2 8.48115
vt -0.34801 -0.347947
f 80/90/2 79/89/2 75/85/2

f 80/90/2 10/12/2 79/89/2

f 80/90/2 9/11/2 10/12/2

v -4.11362 2 8.66233
vt 0.246032 -0.42614
f 80/90/2 81/91/2 9/11/2

v -4.11433 2 8.51233
vt -0.246086 -0.426148
f 82/92/2 81/91/2 80/90/2

v -4.12877 2 8.62622
vt 0.127326 -0.475282
f 82/92/2 83/93/2 81/91/2

v -4.12914 2 8.54858
vt -0.127393 -0.475295
f 84/94/2 83/93/2 82/92/2

v -4.13407 2 8.58743
vt -1.68916e-005 -0.492069
f 83/93/2 84/94/2 85/95/2

vt 0.0642353 -3.83121e-017
vn -0.992044 2.05104e-008 -0.125892
vt -0.0642353 -8.692e-017
f 71/96/23 85/57/23 84/58/23 72/97/23 

vt 0.0642353 -2.69963e-015
vn -0.990794 -2.20555e-008 0.135375
vt -0.0642353 -2.69981e-015
f 70/98/24 83/57/24 85/58/24 71/99/24 

vt 0.0642353 5.0571e-016
vn -0.92213 -6.3031e-008 0.386881
vt -0.0642353 -5.3139e-016
f 69/100/25 81/57/25 83/58/25 70/101/25 

vt 0.0642353 1.37009e-016
vn -0.790378 -9.98085e-008 0.612619
vt -0.0642353 5.63844e-017
f 68/102/26 9/57/26 81/58/26 69/103/26 

vt -0.0642353 7.00539e-017
vn -0.604973 -1.29725e-007 0.796246
vt 0.0642353 -3.74035e-016
f 68/104/27 67/105/27 6/57/27 9/58/27 

vt -0.0642353 -1.55652e-016
vn -0.378205 -1.5082e-007 0.925722
vt 0.0642353 -7.62076e-018
f 67/106/28 51/107/28 5/57/28 6/58/28 

vt 0.0642353 9.83348e-016
vn -0.925722 6.16176e-008 -0.378205
vt -0.0642353 -1.58188e-016
f 72/108/29 84/57/29 82/58/29 73/109/29 

vt 0.0642353 -1.78073e-015
vn -0.796255 9.85608e-008 -0.604961
vt -0.0642353 -1.80954e-015
f 73/110/30 82/57/30 80/58/30 74/111/30 

vn -0.612472 1.28788e-007 -0.790492
vt -0.0642353 -2.74271e-015
vt 0.0642353 -2.14508e-015
f 80/57/31 75/58/31 53/112/31 74/113/31 

vt 0.0425846 6.56169
vn -0.992076 2.0469e-008 -0.125637
vt 0.0425846 26.7389
vt 0.0425846 27.067
vt 0.0425846 27.5591
vt -0.0430624 27.5591
vt -0.0430624 6.56168
f 10/114/32 14/115/32 13/116/32 12/117/32 23/118/32 79/119/32 

usemtl _auto_12
v -4.0839 8.23536 8.62254
vt -338.699 324.227
vn 0.999989 6.6095e-011 -0.00477186
v -4.08384 8.21294 8.63548
vt -339.208 323.344
v -4.08384 8.18706 8.63548
vt -339.208 322.325
v -4.0839 8.16465 8.62254
vt -338.699 321.443
v -4.08395 8.1567 8.61219
vt -338.292 321.13
vt -337.307 320.866
vt -337.307 324.803
v -4.08395 8.2433 8.61219
vt -338.292 324.539
f 86/120/33 87/121/33 88/122/33 89/123/33 90/124/33 14/125/33 13/126/33 91/127/33 

vt -338.462 324.077
vn 0.99998 -0.000917547 -0.00622693
v -4.08386 8.225 8.63049
vt -338.775 323.669
vt -338.972 323.194
f 86/128/34 92/129/34 87/130/34

v -5.58385 8.225 8.63764
vt -221.455 50.5012
vn 0.00378123 0.608802 0.793313
vt -162.4 50.5012
vt -162.4 51.0153
v -5.58388 8.23536 8.62969
vt -221.455 51.0153
f 93/131/35 92/132/35 86/133/35 94/134/35 

v -5.88384 8.225 8.63907
vt -233.267 169.456
vn 0.004406 0.38264 0.923887
v -5.88382 8.21294 8.64407
vt -233.267 168.942
vt -162.401 168.942
vt -162.4 169.456
vt -221.456 169.456
f 95/135/36 96/136/36 87/137/36 92/138/36 93/139/36 

v -5.88381 8.2 8.64577
vt 339.659 322.919
vn -0.999995 -0.000361666 0.00312757
vt 339.592 323.428
vt 339.395 323.903
f 97/140/37 96/141/37 95/142/37

vt -162.401 276.267
vn 0.00472859 0.130618 0.991421
vt -233.267 276.267
vt -233.267 275.753
v -5.58381 8.2 8.64434
vt -221.456 275.753
v -4.08383 8.2 8.63719
vt -162.401 275.753
f 87/143/38 96/144/38 97/145/38 98/146/38 99/147/38 

vt -219.835 -340.328
vn 3.30249e-016 1 1.62921e-007
vt -231.646 -340.385
v -5.88357 8.2 8.69577
vt -231.637 -342.353
v -5.58358 8.2 8.69434
vt -219.826 -342.297
f 98/148/39 97/149/39 100/150/39 101/151/39 

v -5.88382 8.18706 8.64407
vt 233.266 363.767
vn -0.004726 0.130268 -0.991467
vt 233.266 364.281
vt 221.455 364.281
v -5.58382 8.18706 8.64264
vt 221.455 363.767
f 102/152/40 97/153/40 98/154/40 103/155/40 

vt -221.456 363.867
vn 0.00472948 -0.130607 0.991423
vt -162.401 363.867
vt -162.401 364.381
vt -221.456 364.381
f 103/156/41 88/157/41 99/158/41 98/159/41 

v -5.58385 8.175 8.63764
vt -221.456 427.075
vn 0.004407 -0.382633 0.92389
v -4.08386 8.175 8.63049
vt -162.401 427.075
vt -162.401 427.589
vt -221.456 427.589
f 104/160/42 105/161/42 88/162/42 103/163/42 

vt -221.455 461.753
vn 0.00378002 -0.609135 0.793058
v -5.58388 8.16465 8.62969
vt -221.455 461.24
vt -162.4 461.24
vt -162.4 461.753
f 104/164/43 106/165/43 89/166/43 105/167/43 

v -5.88384 8.175 8.63907
vt 233.265 461.754
vn -0.00377898 0.609135 -0.793058
vt 221.455 461.754
vt 221.454 461.24
v -5.88388 8.16465 8.63112
vt 233.265 461.24
f 107/168/44 104/169/44 106/170/44 108/171/44 

vt 233.265 427.149
vn -0.0044017 0.382993 -0.923741
vt 233.265 427.663
vt 221.454 427.663
vt 221.455 427.149
f 107/172/45 102/173/45 103/174/45 104/175/45 

vt -341.261 322.819
vn 0.999989 -7.16273e-005 -0.00469596
v -5.58358 8.15 8.69434
vt -341.261 320.85
vt -339.029 321.835
vt -339.225 322.309
vt -339.292 322.819
f 101/176/46 109/177/46 104/178/46 103/179/46 98/180/46 

v -5.88357 8.15 8.69577
vt -233.267 320.866
vn 0.0047701 -1.62919e-007 0.999989
vt -221.456 320.866
vt -221.456 322.835
vt -233.267 322.835
f 110/181/47 109/182/47 101/183/47 100/184/47 

usemtl _auto_15
vt -0.5 -1.66667
vn -5.86898e-016 -1 -1.62921e-007
v -5.88453 8.15 8.49577
vt 0.166667 -1.66667
v -5.58453 8.15 8.49434
vt 0.16667 -0.666667
v -5.58405 8.15 8.59434
vt -0.166667 -0.666667
vt -0.499997 -0.6667
f 110/185/48 111/186/48 112/187/48 113/188/48 109/189/48 

usemtl _auto_12
v -5.88453 8.2 8.49577
vt 333.362 322.835
vn -0.999988 2.95573e-008 0.00480378
vt 333.362 320.866
vt 341.237 320.866
vt 341.237 322.835
vt 339.268 322.835
vt 339.004 323.819
v -5.88426 8.225 8.55247
vt 335.595 323.819
v -5.88429 8.2 8.54577
vt 335.331 322.835
f 114/190/49 111/191/49 110/192/49 100/193/49 97/194/49 95/195/49 115/196/49 116/197/49 

vt 233.267 322.835
vn -0.00476995 1.62919e-007 -0.999989
v -5.58453 8.2 8.49434
vt 221.456 322.835
vt 221.456 320.866
vt 233.267 320.866
f 114/198/50 117/199/50 112/200/50 111/201/50 

vt -231.674 -334.479
vn 1.10017e-015 1 1.62921e-007
vt -231.665 -336.448
v -5.58429 8.2 8.54434
vt -219.854 -336.391
vt -219.863 -334.423
f 114/202/51 116/203/51 118/204/51 117/205/51 

vt 233.266 363.761
vn -0.00472612 0.130247 -0.99147
v -5.88428 8.21294 8.54747
vt 233.266 364.275
v -4.0843 8.21294 8.53889
vt 162.4 364.275
v -4.08431 8.2 8.53719
vt 162.4 363.761
vt 221.455 363.761
f 116/206/52 119/207/52 120/208/52 121/209/52 118/210/52 

vt 335.985 323.735
vn -0.999995 0.000361665 0.00312757
vt 335.788 323.26
vt 335.721 322.75
f 115/211/53 119/212/53 116/213/53

vt 162.4 427.138
vn -0.00440374 0.382942 -0.923762
vt 233.266 427.138
vt 233.266 427.652
v -5.58426 8.225 8.55104
vt 221.455 427.652
v -4.08428 8.225 8.54389
vt 162.4 427.652
f 120/214/54 119/215/54 115/216/54 122/217/54 123/218/54 

vt -219.837 -340.065
vn 7.30158e-016 1 1.62921e-007
vt -219.853 -336.655
vt -231.664 -336.711
vt -231.647 -340.121
f 93/219/55 122/220/55 115/221/55 95/222/55 

v -5.58422 8.23536 8.55898
vt 335.92 324.173
vn -0.999989 0.000241787 0.00474777
vt 335.608 323.765
vt 339.017 323.765
v -5.58393 8.2433 8.61934
vt 338.297 324.486
v -5.58405 8.25 8.59434
vt 337.312 324.75
v -5.58411 8.2483 8.5814
vt 336.803 324.683
v -5.58417 8.2433 8.56934
vt 336.328 324.486
f 124/223/56 122/224/56 93/225/56 125/226/56 126/227/56 127/228/56 128/229/56 

vt 221.455 461.171
vn -0.00378283 0.608369 -0.793645
vt 221.455 461.685
v -4.08424 8.23536 8.55183
vt 162.4 461.685
vt 162.4 461.171
f 122/230/57 124/231/57 129/232/57 123/233/57 

vt 221.455 463.849
vn -0.00289939 0.793672 -0.60834
vt 221.455 464.363
v -4.08419 8.2433 8.56219
vt 162.4 464.363
vt 162.4 463.849
f 124/234/58 128/235/58 130/236/58 129/237/58 

vt 221.455 434.973
vn -0.00182528 0.923757 -0.382975
vt 221.455 435.487
v -4.08413 8.2483 8.57425
vt 162.4 435.487
vt 162.4 434.973
f 128/238/59 127/239/59 131/240/59 130/241/59 

vt 162.4 376.207
vn -0.000620524 0.99149 -0.130178
vt 221.455 376.207
vt 221.455 376.721
vt 162.4 376.72
f 131/242/60 127/243/60 126/244/60 13/245/60 

vt -162.4 -292.155
vn 0.000620524 0.99149 0.130178
vt -221.455 -292.155
v -5.58399 8.2483 8.60728
vt -221.455 -292.669
v -4.08401 8.2483 8.60013
vt -162.4 -292.669
f 13/246/61 126/247/61 132/248/61 133/249/61 

vt 338.356 324.803
vn -0.999989 -0.00119306 0.00448043
vt 337.881 325
vt 337.372 325.067
f 125/250/62 132/251/62 126/252/62

vt -221.455 -187.694
vn 0.00182528 0.923757 0.382975
vt -221.455 -188.208
vt -162.4 -188.208
vt -162.4 -187.694
f 132/253/63 125/254/63 91/255/63 133/256/63 

vt -221.455 -70.8552
vn 0.00290126 0.793402 0.608691
vt -221.455 -71.3689
vt -162.4 -71.3689
vt -162.4 -70.8553
f 125/257/64 94/258/64 86/259/64 91/260/64 

vt 338.351 323.789
vn -0.999978 0.0019708 0.00634229
vt 337.943 324.101
vt 338.664 323.381
f 94/261/65 125/262/65 93/263/65

vt -337.355 324.997
vn 0.999989 0.00119551 -0.00447942
vt -337.864 324.93
vt -338.339 324.733
f 13/264/66 133/265/66 91/266/66

vt -336.37 324.346
vn 0.999989 -0.00119306 -0.00448043
vt -336.845 324.542
vt -337.355 324.609
f 130/267/67 131/268/67 13/269/67

vt -335.906 324.227
vn 0.999988 5.13586e-010 -0.00482543
vt -336.314 324.539
vt -337.299 324.803
vt -337.299 320.866
v -4.08419 8.1567 8.56219
vt -336.314 321.13
v -4.08424 8.16465 8.55183
vt -335.906 321.443
v -4.08428 8.175 8.54389
vt -335.594 321.85
vt -335.33 322.835
vt -335.594 323.819
f 129/270/68 130/271/68 13/272/68 14/273/68 134/274/68 135/275/68 136/276/68 121/277/68 123/278/68 

vt -337.355 321.06
vn 0.999989 0.00119306 -0.00448043
v -4.08413 8.1517 8.57425
vt -336.845 321.126
vt -336.37 321.323
f 14/279/69 137/280/69 134/281/69

vt 162.4 -292.154
vn -0.000620524 -0.99149 -0.130178
vt 162.4 -292.667
vt 221.455 -292.668
v -5.58411 8.1517 8.5814
vt 221.455 -292.154
f 137/282/70 14/283/70 113/284/70 138/285/70 

vt -162.4 376.208
vn 0.000620524 -0.99149 0.130178
v -4.08401 8.1517 8.60013
vt -162.4 376.722
v -5.58399 8.1517 8.60728
vt -221.455 376.722
vt -221.455 376.208
f 14/286/71 139/287/71 140/288/71 113/289/71 

vt -338.339 320.936
vn 0.999989 -0.00119551 -0.00447942
vt -337.864 320.739
vt -337.355 320.672
f 90/290/72 139/291/72 14/292/72

vt -221.455 434.972
vn 0.00182528 -0.923757 0.382975
vt -162.4 434.972
vt -162.4 435.486
v -5.58393 8.1567 8.61934
vt -221.455 435.486
f 140/293/73 139/294/73 90/295/73 141/296/73 

vt -221.455 463.9
vn 0.00290333 -0.793069 0.609125
vt -162.4 463.9
vt -162.4 464.414
vt -221.455 464.414
f 141/297/74 90/298/74 89/299/74 106/300/74 

v -5.88393 8.1567 8.62077
vt 233.266 463.901
vn -0.00290359 0.793055 -0.609144
vt 233.266 464.415
vt 221.455 464.415
vt 221.455 463.901
f 142/301/75 108/302/75 106/303/75 141/304/75 

vt -337.836 320.954
vn 0.999989 9.51926e-005 -0.00468246
vt -338.311 321.151
vt -338.719 321.464
vt -339.032 321.871
vt -341.264 320.887
f 140/305/76 141/306/76 106/307/76 104/308/76 109/309/76 

v -5.88399 8.1517 8.60871
vt 233.267 434.971
vn -0.00182679 0.923757 -0.382975
vt 233.267 435.485
vt 221.456 435.485
vt 221.456 434.971
f 143/310/77 142/311/77 141/312/77 140/313/77 

vt -341.26 320.972
vn 0.999989 0.000479047 -0.00469999
vt -337.323 320.972
vt -337.832 321.039
f 109/314/78 113/315/78 140/316/78

vt -336.791 320.657
vn 0.999988 -0.00124553 -0.00479989
vt -337.301 320.59
vt -333.364 320.59
f 138/317/79 113/318/79 112/319/79

vt -336.789 320.934
vn 0.999988 3.00916e-006 -0.00480842
vt -333.362 320.867
vt -333.362 322.835
v -5.58428 8.18706 8.54604
vt -335.397 322.326
v -5.58426 8.175 8.55104
vt -335.594 321.851
v -5.58422 8.16465 8.55898
vt -335.907 321.444
v -5.58417 8.1567 8.56934
vt -336.315 321.131
f 138/320/80 112/321/80 117/322/80 118/277/80 144/323/80 145/324/80 146/325/80 147/326/80 

vt 221.455 276.428
vn -0.00472611 -0.130193 -0.991477
vt 162.4 276.428
v -4.0843 8.18706 8.53889
vt 162.4 275.914
vt 221.455 275.914
f 118/327/81 121/328/81 148/329/81 144/330/81 

vt -335.869 321.909
vn 0.999995 0.000362415 -0.00312576
vt -335.673 322.384
vt -335.606 322.893
f 136/331/82 148/332/82 121/333/82

vt 221.455 168.792
vn -0.00440329 -0.382958 -0.923755
vt 221.455 169.306
vt 162.4 169.306
vt 162.4 168.792
f 145/334/83 144/335/83 148/336/83 136/337/83 

v -5.88426 8.175 8.55247
vt -233.267 168.792
vn 0.00440631 0.382958 0.923755
vt -221.456 168.792
vt -221.456 169.306
v -5.88428 8.18706 8.54747
vt -233.267 169.306
f 149/338/84 145/339/84 144/340/84 150/341/84 

vt -233.267 51.1018
vn 0.00378332 0.608654 0.793427
v -5.88422 8.16465 8.56041
vt -233.267 50.5882
vt -221.455 50.5882
vt -221.456 51.1018
f 149/342/85 151/343/85 146/344/85 145/345/85 

vt -233.267 -70.8172
vn 0.00290275 0.793353 0.608755
v -5.88417 8.1567 8.57077
vt -233.267 -71.3314
vt -221.455 -71.3313
vt -221.455 -70.8172
f 151/346/86 152/347/86 147/348/86 146/349/86 

vt -233.267 -187.695
vn 0.00182679 0.923757 0.382975
v -5.88411 8.1517 8.58283
vt -233.267 -188.209
vt -221.456 -188.209
vt -221.456 -187.695
f 152/350/87 153/351/87 138/352/87 147/353/87 

vt 221.455 -187.696
vn -0.00182528 -0.923757 -0.382975
vt 162.4 -187.696
vt 162.4 -188.21
vt 221.455 -188.21
f 147/354/88 134/355/88 137/356/88 138/357/88 

vt 221.455 -70.8069
vn -0.00290145 -0.793338 -0.608774
vt 162.4 -70.8069
vt 162.4 -71.321
vt 221.455 -71.321
f 146/358/89 135/359/89 134/360/89 147/361/89 

vt 221.455 51.0734
vn -0.00378161 -0.608702 -0.79339
vt 162.4 51.0734
vt 162.4 50.5598
vt 221.455 50.5598
f 145/362/90 136/363/90 135/364/90 146/365/90 

vt -233.266 276.4
vn 0.004726 0.130268 0.991468
vt -233.266 275.886
vt -221.455 275.886
vt -221.455 276.4
f 116/366/91 150/367/91 144/368/91 118/369/91 

vt -335.606 322.776
vn 0.999995 -0.000362373 -0.00312586
vt -335.673 323.285
vt -335.869 323.76
f 121/370/92 120/371/92 123/372/92

vt -338.972 322.474
vn 0.99998 0.000916618 -0.00622468
vt -338.776 322
vt -338.463 321.592
f 88/373/93 105/374/93 89/375/93

vt -339.034 323.344
vn 0.999983 9.52738e-010 -0.00584785
vt -339.101 322.835
vt -339.034 322.325
f 87/376/94 99/377/94 88/378/94

usemtl _auto_16
vn -0.92559 6.167e-008 -0.378527
f 79/2/95 23/3/95 22/4/95 78/1/95 

vn -0.796354 9.85396e-008 -0.604831
f 78/2/96 22/3/96 21/45/96 77/46/96 

vn -0.612452 1.2879e-007 -0.790508
v -4.03448 2 8.50035
f 21/3/97 20/4/97 154/46/97 77/2/97 

vn -0.387219 1.50211e-007 -0.921988
v -4.01041 2 8.49024
f 20/3/98 19/4/98 155/1/98 154/2/98 

vn -0.135288 1.61423e-007 -0.990806
v -3.98455 2 8.48671
f 19/20/99 18/4/99 156/1/99 155/19/99 

vn 0.126014 1.61622e-007 -0.992028
f 18/3/100 17/4/100 36/1/100 156/2/100 

v -3.94594 2 8.44164
vt -0.475355 0.12737
vt -0.3281 7.47695e-006
vt -0.316899 0.0849246
f 157/379/2 156/380/2 36/381/2

v -3.98479 2 8.43671
vt -0.492137 -6.10369e-006
f 158/382/2 156/380/2 157/379/2

vt -0.316923 -0.084884
f 158/382/2 155/383/2 156/380/2

f 76/87/2 155/383/2 158/382/2

vt -0.284136 -0.164005
f 76/87/2 154/384/2 155/383/2

f 76/87/2 77/86/2 154/384/2

vn -0.13535 1.61422e-007 -0.990798
vt -0.0642353 -1.42253e-016
vt 0.0642353 -1.8711e-016
f 76/57/101 158/58/101 55/385/101 54/386/101 

vn 0.125864 1.61625e-007 -0.992048
vt -0.0642353 -2.68927e-015
vt 0.0642353 -2.95081e-015
f 158/57/102 157/58/102 56/387/102 55/388/102 

vn 0.378227 1.50818e-007 -0.925713
v -3.90969 2 8.45645
vt -0.0642353 -8.5458e-017
vt 0.0642353 -9.08705e-017
f 157/57/103 159/58/103 57/389/103 56/390/103 

vt -0.284134 0.164064
vt -0.426194 0.246063
f 157/379/2 35/391/2 159/392/2

f 157/379/2 36/381/2 35/391/2

vt -0.232005 0.231991
f 159/392/2 35/391/2 37/393/2

vt -0.164042 0.284129
f 159/392/2 37/393/2 38/394/2

v -3.87851 2 8.48014
vt -0.347986 0.347986
f 159/392/2 38/394/2 160/395/2

vt -0.0849122 0.316924
f 160/395/2 38/394/2 39/396/2

vt -1.678e-005 0.328104
f 160/395/2 39/396/2 40/397/2

v -3.8775 2 8.69227
vt 0.347976 0.348017
f 40/397/2 161/398/2 160/395/2

vt 0.0849025 0.31691
f 41/399/2 161/398/2 40/397/2

vt 0.164043 0.284156
f 42/400/2 161/398/2 41/399/2

f 42/400/2 45/48/2 161/398/2

f 43/49/2 45/48/2 42/400/2

vt -0.0642353 -1.45706e-015
vn 0.612616 -1.2877e-007 0.790381
vt 0.0642353 -1.33579e-015
f 65/401/104 64/402/104 161/57/104 45/58/104 

vt 0.0642353 -1.77925e-015
vn 0.796255 -9.85608e-008 0.604961
v -3.85381 2 8.66109
vt -0.0642353 -1.82444e-015
f 63/403/105 162/57/105 161/58/105 64/404/105 

vt 0.0642353 -3.10885e-015
vn 0.925722 -6.16176e-008 0.378205
v -3.839 2 8.62484
vt -0.0642353 -2.87413e-015
f 62/405/106 163/57/106 162/58/106 63/406/106 

vt 0.0642353 9.80475e-017
vn 0.99204 -2.05156e-008 0.125924
v -3.83407 2 8.586
vt -0.0642353 8.56037e-017
f 61/407/107 164/57/107 163/58/107 62/408/107 

vt 0.0642353 1.14737e-016
vn 0.990799 2.20499e-008 -0.135341
v -3.83937 2 8.5472
vt -0.0642353 -1.0789e-016
f 60/409/108 165/57/108 164/58/108 61/410/108 

vt 0.0642353 -1.42183e-017
vn 0.922039 6.30664e-008 -0.387098
v -3.85453 2 8.51109
vt -0.0642353 -1.05439e-016
f 59/411/109 166/57/109 165/58/109 60/412/109 

vt 0.0642353 -2.61233e-017
vn 0.790502 9.97825e-008 -0.61246
vt -0.0642353 5.45015e-017
f 58/413/110 160/57/110 166/58/110 59/414/110 

vn 0.604957 1.29727e-007 -0.796258
vt -0.0642353 -4.54466e-016
vt 0.0642353 1.79848e-016
f 159/57/111 160/58/111 58/415/111 57/416/111 

vt -0.246067 0.426176
f 160/395/2 161/398/2 166/417/2

vt 0.246052 0.426217
f 166/417/2 161/398/2 162/418/2

vt -0.127361 0.475352
f 166/417/2 162/418/2 165/419/2

vt 0.127358 0.475364
f 165/419/2 162/418/2 163/420/2

vt 1.53935e-005 0.492138
f 165/419/2 163/420/2 164/421/2

vt -0.0642353 -2.12431e-015
vn 0.386881 -1.50234e-007 0.92213
vt 0.0642353 -2.93848e-015
f 66/422/112 65/423/112 45/57/112 46/58/112 

vt -0.0642353 1.22942e-016
vn 0.135341 -1.61422e-007 0.990799
vt 0.0642353 6.09347e-017
f 52/424/113 66/425/113 46/57/113 48/58/113 

